<?xml version="1.0" standalone="no"?>
<!DOCTYPE svg PUBLIC "-//W3C//DTD SVG 20010904//EN"
 "http://www.w3.org/TR/2001/REC-SVG-20010904/DTD/svg10.dtd">
<svg version="1.0" xmlns="http://www.w3.org/2000/svg"
 width="700.000000pt" height="700.000000pt" viewBox="0 0 700.000000 700.000000"
 preserveAspectRatio="xMidYMid meet">
<metadata>
Created by potrace 1.11, written by Peter Selinger 2001-2013
</metadata>
<g transform="translate(0.000000,700.000000) scale(0.100000,-0.100000)"
fill="#000000" stroke="none">
<path d="M5150 6989 c-242 -28 -499 -132 -702 -285 -110 -82 -271 -250 -340
-355 -59 -88 -137 -238 -157 -301 -7 -21 -16 -40 -21 -43 -5 -3 -64 2 -132 11
-173 23 -544 15 -711 -15 -666 -119 -1219 -456 -1618 -987 -93 -124 -169 -250
-169 -281 0 -75 86 -127 151 -93 10 6 49 57 85 113 70 107 139 198 237 309
l60 68 61 -49 c83 -67 200 -138 337 -206 63 -32 116 -59 118 -61 3 -2 -10 -55
-27 -117 -82 -295 -135 -629 -148 -944 l-7 -153 -493 0 c-271 0 -495 3 -497 8
-9 14 14 218 39 342 13 69 40 175 59 237 40 126 40 133 21 172 -29 56 -108 68
-156 24 -33 -31 -80 -174 -119 -358 -71 -338 -69 -743 4 -1070 14 -60 25 -113
25 -117 0 -3 -37 -27 -83 -51 -264 -144 -494 -382 -628 -650 -48 -94 -101
-249 -126 -367 -14 -67 -18 -129 -18 -295 0 -192 3 -220 27 -322 69 -291 219
-551 434 -751 647 -606 1669 -512 2204 203 59 79 167 277 190 347 6 21 15 40
20 43 5 3 61 -1 125 -10 151 -20 457 -20 612 0 741 94 1389 494 1803 1114 38
57 81 127 96 157 23 48 25 57 14 89 -16 47 -63 78 -109 71 -45 -7 -59 -21
-120 -124 -64 -107 -144 -215 -245 -333 l-77 -88 -83 63 c-96 73 -189 129
-331 199 -55 27 -102 51 -104 53 -2 2 12 66 32 141 85 324 129 605 143 926 l7
147 496 -2 496 -3 -3 -55 c-6 -116 -34 -287 -69 -419 -51 -194 -52 -214 -15
-251 42 -41 101 -42 141 -2 28 28 72 165 105 332 65 327 62 728 -9 1045 -14
60 -25 113 -25 117 0 4 26 21 58 37 260 131 517 392 653 664 45 89 100 246
124 357 26 117 32 404 11 529 -56 335 -209 622 -453 851 -320 299 -750 440
-1193 389z m406 -214 c484 -85 886 -456 1010 -933 90 -349 29 -725 -167 -1022
l-54 -82 -6 164 c-6 179 -20 232 -84 333 -73 115 -215 210 -350 236 -33 7 -61
13 -62 13 -1 1 5 24 14 51 13 39 17 108 21 322 4 291 -3 374 -39 446 -34 65
-103 132 -172 163 l-62 29 -242 3 c-279 4 -333 -4 -422 -66 -67 -45 -125 -132
-141 -208 -8 -36 -10 -156 -8 -357 3 -246 7 -310 20 -343 l16 -41 -66 -12
c-195 -35 -360 -188 -417 -384 -10 -33 -19 -117 -23 -200 l-7 -142 -54 84
c-135 211 -201 438 -201 692 0 205 42 382 135 568 180 360 520 614 914 685
106 20 338 20 447 1z m-287 -899 c94 -64 247 -104 354 -93 l50 4 -5 -98 c-4
-79 -10 -108 -32 -152 -34 -71 -93 -129 -164 -164 -48 -23 -70 -28 -137 -28
-71 0 -88 4 -147 33 -73 36 -124 87 -160 161 -20 39 -23 65 -26 178 l-4 131
54 7 c41 5 145 39 164 54 1 0 25 -14 53 -33z m-1869 -561 l0 -505 -63 0 c-85
0 -297 26 -421 51 -116 23 -277 67 -289 78 -17 17 115 289 212 436 144 218
320 372 486 425 33 10 63 19 68 19 4 1 7 -226 7 -504z m305 473 c28 -11 73
-33 100 -49 l50 -30 1 -177 c0 -237 31 -395 119 -604 19 -45 34 -83 32 -84 -6
-6 -292 -34 -345 -34 l-62 0 0 505 0 505 28 -6 c15 -4 50 -15 77 -26z m-862
-72 c-10 -13 -41 -50 -69 -83 -105 -124 -228 -333 -310 -528 -21 -49 -39 -91
-40 -93 -2 -5 -118 50 -197 94 -87 49 -237 153 -237 164 0 11 209 164 300 221
117 72 292 155 435 206 66 23 124 42 128 42 5 1 0 -10 -10 -23z m2133 -447 c3
-6 30 -26 59 -45 193 -123 420 -119 610 12 l64 43 95 -8 c112 -9 185 -40 240
-101 81 -90 96 -158 96 -442 l0 -197 -63 -45 c-84 -60 -219 -136 -229 -130 -4
3 -8 102 -8 220 0 129 -4 223 -10 235 -13 24 -61 49 -96 49 -16 0 -38 -12 -60
-34 l-34 -34 0 -255 0 -255 -43 -10 c-88 -23 -263 -33 -377 -22 -60 6 -115 12
-122 14 -7 3 -25 7 -40 10 l-27 6 -3 259 c-3 258 -3 260 -27 285 -48 51 -125
43 -161 -16 -18 -30 -20 -51 -20 -246 l0 -212 -52 26 c-29 14 -95 54 -146 88
l-93 61 3 250 c3 232 5 253 25 297 28 62 104 142 160 169 68 33 244 52 259 28z
m-2251 -574 c172 -44 347 -73 528 -87 l147 -11 0 -499 0 -498 -516 0 -516 0 6
73 c3 39 8 115 11 167 14 224 62 524 121 749 19 74 37 138 41 143 3 6 15 7 27
3 11 -3 80 -21 151 -40z m1477 -130 c83 -100 164 -174 283 -260 44 -31 81 -58
82 -59 11 -10 43 -316 58 -553 l6 -93 -516 0 -515 0 0 498 0 499 153 12 c83 7
199 21 257 31 58 9 108 17 111 16 3 0 40 -41 81 -91z m832 -497 c87 -20 129
-23 301 -23 173 0 214 3 304 23 57 13 107 20 111 15 19 -20 64 -288 72 -428
l3 -50 -496 -3 -496 -2 -7 146 c-6 136 -20 302 -31 366 l-4 27 70 -24 c39 -14
117 -35 173 -47z m-2860 -814 c6 -136 20 -302 31 -366 l4 -27 -70 24 c-164 56
-259 70 -474 70 -195 -1 -234 -5 -405 -46 -12 -3 -21 25 -42 129 -26 129 -50
339 -41 355 2 4 226 7 497 7 l493 0 7 -146z m1226 -354 c0 -489 0 -500 -19
-500 -57 0 -291 -24 -391 -40 -63 -11 -115 -18 -116 -17 -103 137 -228 260
-360 352 -38 27 -72 51 -76 54 -15 13 -45 276 -63 559 l-6 92 516 0 515 0 0
-500z m1225 413 c-28 -425 -70 -699 -148 -968 -19 -66 -27 -80 -43 -78 -10 0
-80 17 -154 36 -175 46 -349 75 -532 89 l-148 12 0 498 0 498 516 0 515 0 -6
-87z m-2703 -584 c472 -95 855 -456 977 -922 53 -204 54 -437 2 -642 -33 -127
-118 -316 -184 -407 l-34 -47 -6 147 c-7 158 -17 202 -67 303 -66 130 -219
244 -368 272 -34 6 -62 16 -62 22 1 5 7 37 15 70 12 47 15 146 15 464 l0 403
-34 34 -34 34 -359 0 c-395 0 -413 -2 -503 -60 -57 -37 -109 -103 -136 -175
-17 -45 -19 -79 -18 -365 0 -266 3 -323 17 -365 9 -27 15 -50 14 -50 -1 -1
-31 -7 -67 -13 -174 -31 -338 -172 -402 -347 -18 -50 -22 -88 -26 -218 -5
-184 -3 -183 -87 -43 -195 327 -236 704 -115 1068 36 106 75 186 147 298 74
115 260 297 376 369 286 176 614 236 939 170z m78 -564 l0 -85 -336 0 -337 0
7 43 c9 52 28 82 69 107 30 19 52 20 315 20 l282 0 0 -85z m1400 -480 l0 -505
-27 6 c-53 13 -126 43 -177 74 l-51 31 -1 177 c0 236 -31 395 -119 602 -23 55
-30 82 -22 85 27 10 248 33 320 34 l77 1 0 -505z m455 490 c194 -23 490 -88
518 -114 25 -24 -162 -380 -280 -534 -132 -173 -314 -306 -465 -341 l-28 -6 0
505 0 505 63 0 c34 0 120 -7 192 -15z m840 -240 c98 -50 227 -131 295 -184 23
-18 23 -21 9 -33 -206 -165 -381 -273 -572 -354 -110 -46 -278 -106 -283 -101
-2 1 24 34 57 72 122 143 278 407 350 593 13 34 26 62 29 62 3 0 54 -25 115
-55z m-2697 -227 c-3 -155 -5 -166 -31 -216 -111 -212 -386 -251 -546 -77 -74
80 -85 117 -89 298 l-4 157 337 0 337 0 -4 -162z m-678 -483 c24 -29 125 -83
194 -104 88 -27 207 -28 297 -2 77 22 117 41 182 89 48 35 48 35 136 30 148
-9 245 -68 303 -186 l33 -66 3 -247 3 -246 -38 -30 c-49 -39 -224 -143 -240
-143 -9 0 -13 57 -15 221 l-3 221 -33 29 c-44 39 -90 39 -134 0 l-33 -29 -3
-260 -3 -259 -52 -13 c-89 -22 -352 -25 -462 -5 l-95 17 0 248 c0 172 -4 257
-12 275 -13 29 -55 55 -88 55 -29 0 -77 -27 -90 -49 -6 -12 -10 -107 -10 -235
0 -141 -4 -216 -10 -216 -21 0 -147 69 -218 120 l-74 52 4 241 c5 278 11 305
84 386 80 89 152 119 285 120 57 1 80 -3 89 -14z"/>
</g>
</svg>
